<svg width="374" height="514" viewBox="0 0 374 514" fill="none" xmlns="http://www.w3.org/2000/svg">
<g clip-path="url(#clip0_20_30)">
<rect width="374" height="514" fill="#E05A7A"/>
<path opacity="0.1" fill-rule="evenodd" clip-rule="evenodd" d="M-17.2656 680.562C49.4659 680.562 103.562 626.466 103.562 559.734C103.562 493.003 49.4659 438.906 -17.2656 438.906C-83.9972 438.906 -138.094 493.003 -138.094 559.734C-138.094 626.466 -83.9972 680.562 -17.2656 680.562Z" fill="#C4D0FB"/>
<path opacity="0.2" fill-rule="evenodd" clip-rule="evenodd" d="M-14 772C101.428 772 195 678.428 195 563C195 447.572 101.428 354 -14 354C-129.428 354 -223 447.572 -223 563C-223 678.428 -129.428 772 -14 772Z" stroke="#C4D0FB"/>
<path opacity="0.1" fill-rule="evenodd" clip-rule="evenodd" d="M384.734 126.562C451.466 126.562 505.562 72.4659 505.562 5.73438C505.562 -60.9972 451.466 -115.094 384.734 -115.094C318.003 -115.094 263.906 -60.9972 263.906 5.73438C263.906 72.4659 318.003 126.562 384.734 126.562Z" fill="#C4D0FB"/>
<path opacity="0.2" fill-rule="evenodd" clip-rule="evenodd" d="M388 218C503.428 218 597 124.428 597 9C597 -106.428 503.428 -200 388 -200C272.572 -200 179 -106.428 179 9C179 124.428 272.572 218 388 218Z" stroke="#C4D0FB"/>
<path opacity="0.1" fill-rule="evenodd" clip-rule="evenodd" d="M68 132C81.2548 132 92 121.255 92 108C92 94.7452 81.2548 84 68 84C54.7452 84 44 94.7452 44 108C44 121.255 54.7452 132 68 132Z" fill="#C4D0FB"/>
<path opacity="0.2" fill-rule="evenodd" clip-rule="evenodd" d="M275 478C280.523 478 285 473.523 285 468C285 462.477 280.523 458 275 458C269.477 458 265 462.477 265 468C265 473.523 269.477 478 275 478Z" fill="#C4D0FB"/>
<path d="M129.939 330.636C130.323 331.26 130.467 331.824 130.371 332.328C130.275 332.856 130.035 333.288 129.651 333.624C129.267 333.984 128.799 334.212 128.247 334.308C127.719 334.404 127.179 334.344 126.627 334.128C126.099 333.936 125.643 333.552 125.259 332.976L122.703 328.8C122.391 328.32 121.983 327.96 121.479 327.72C120.999 327.504 120.375 327.396 119.607 327.396L123.855 325.776C124.959 325.776 125.859 325.968 126.555 326.352C127.275 326.736 127.923 327.396 128.499 328.332L129.939 330.636ZM119.643 327.396C117.147 327.396 114.951 326.856 113.055 325.776C111.183 324.672 109.719 323.136 108.663 321.168C107.631 319.2 107.115 316.908 107.115 314.292C107.115 312.3 107.403 310.512 107.979 308.928C108.579 307.32 109.431 305.952 110.535 304.824C111.639 303.672 112.959 302.784 114.495 302.16C116.055 301.536 117.771 301.224 119.643 301.224C122.187 301.224 124.395 301.764 126.267 302.844C128.139 303.924 129.591 305.448 130.623 307.416C131.679 309.36 132.207 311.64 132.207 314.256C132.207 316.248 131.907 318.048 131.307 319.656C130.707 321.264 129.855 322.644 128.751 323.796C127.647 324.948 126.327 325.836 124.791 326.46C123.255 327.084 121.539 327.396 119.643 327.396ZM119.643 322.644C121.059 322.644 122.259 322.32 123.243 321.672C124.251 321 125.019 320.04 125.547 318.792C126.099 317.52 126.375 316.02 126.375 314.292C126.375 311.652 125.787 309.612 124.611 308.172C123.435 306.708 121.779 305.976 119.643 305.976C118.251 305.976 117.051 306.3 116.043 306.948C115.035 307.596 114.267 308.544 113.739 309.792C113.211 311.04 112.947 312.54 112.947 314.292C112.947 316.908 113.535 318.96 114.711 320.448C115.887 321.912 117.531 322.644 119.643 322.644ZM142.211 327.396C140.723 327.396 139.487 327.12 138.503 326.568C137.519 326.016 136.787 325.188 136.307 324.084C135.851 322.956 135.623 321.564 135.623 319.908V311.772C135.623 310.86 135.851 310.176 136.307 309.72C136.787 309.264 137.459 309.036 138.323 309.036C139.187 309.036 139.859 309.264 140.339 309.72C140.819 310.176 141.059 310.86 141.059 311.772V320.052C141.059 321.108 141.275 321.9 141.707 322.428C142.139 322.932 142.823 323.184 143.759 323.184C144.791 323.184 145.631 322.824 146.279 322.104C146.951 321.36 147.287 320.388 147.287 319.188V311.772C147.287 310.86 147.515 310.176 147.971 309.72C148.451 309.264 149.123 309.036 149.987 309.036C150.875 309.036 151.547 309.264 152.003 309.72C152.483 310.176 152.723 310.86 152.723 311.772V324.552C152.723 326.4 151.847 327.324 150.095 327.324C149.231 327.324 148.571 327.084 148.115 326.604C147.659 326.124 147.431 325.44 147.431 324.552V322.14L147.971 323.544C147.443 324.768 146.687 325.716 145.703 326.388C144.719 327.06 143.555 327.396 142.211 327.396ZM159.305 327.288C158.417 327.288 157.733 327.036 157.253 326.532C156.797 326.004 156.569 325.272 156.569 324.336V312.024C156.569 311.064 156.797 310.332 157.253 309.828C157.733 309.3 158.417 309.036 159.305 309.036C160.169 309.036 160.829 309.3 161.285 309.828C161.765 310.332 162.005 311.064 162.005 312.024V324.336C162.005 325.272 161.777 326.004 161.321 326.532C160.865 327.036 160.193 327.288 159.305 327.288ZM159.305 306.084C158.297 306.084 157.517 305.856 156.965 305.4C156.437 304.92 156.173 304.248 156.173 303.384C156.173 302.496 156.437 301.824 156.965 301.368C157.517 300.888 158.297 300.648 159.305 300.648C160.313 300.648 161.081 300.888 161.609 301.368C162.137 301.824 162.401 302.496 162.401 303.384C162.401 304.248 162.137 304.92 161.609 305.4C161.081 305.856 160.313 306.084 159.305 306.084ZM167.354 327C166.826 327 166.382 326.868 166.022 326.604C165.662 326.316 165.422 325.956 165.302 325.524C165.182 325.092 165.182 324.624 165.302 324.12C165.446 323.616 165.722 323.148 166.13 322.716L174.95 312.132V313.392H167.138C166.49 313.392 165.986 313.212 165.626 312.852C165.266 312.492 165.086 312 165.086 311.376C165.086 310.704 165.266 310.2 165.626 309.864C165.986 309.504 166.49 309.324 167.138 309.324H177.542C178.19 309.324 178.706 309.468 179.09 309.756C179.474 310.044 179.726 310.404 179.846 310.836C179.99 311.244 180.002 311.7 179.882 312.204C179.786 312.684 179.534 313.14 179.126 313.572L170.09 324.372V322.968H178.442C179.81 322.968 180.494 323.64 180.494 324.984C180.494 325.632 180.314 326.136 179.954 326.496C179.594 326.832 179.09 327 178.442 327H167.354ZM191.608 327.396C189.52 327.396 187.72 327.024 186.208 326.28C184.72 325.512 183.568 324.444 182.752 323.076C181.96 321.684 181.564 320.052 181.564 318.18C181.564 316.356 181.948 314.76 182.716 313.392C183.484 312 184.552 310.92 185.92 310.152C187.312 309.36 188.884 308.964 190.636 308.964C191.908 308.964 193.06 309.18 194.092 309.612C195.124 310.02 196.012 310.62 196.756 311.412C197.5 312.18 198.064 313.128 198.448 314.256C198.832 315.36 199.024 316.596 199.024 317.964C199.024 318.42 198.88 318.768 198.592 319.008C198.304 319.224 197.884 319.332 197.332 319.332H186.028V316.524H195.1L194.524 317.028C194.524 316.044 194.38 315.228 194.092 314.58C193.804 313.908 193.384 313.404 192.832 313.068C192.304 312.732 191.644 312.564 190.852 312.564C189.964 312.564 189.208 312.768 188.584 313.176C187.96 313.584 187.48 314.172 187.144 314.94C186.808 315.708 186.64 316.632 186.64 317.712V318C186.64 319.824 187.06 321.168 187.9 322.032C188.764 322.896 190.036 323.328 191.716 323.328C192.292 323.328 192.952 323.256 193.696 323.112C194.44 322.968 195.136 322.74 195.784 322.428C196.336 322.164 196.828 322.08 197.26 322.176C197.692 322.248 198.028 322.44 198.268 322.752C198.508 323.064 198.64 323.424 198.664 323.832C198.712 324.24 198.628 324.648 198.412 325.056C198.196 325.44 197.836 325.764 197.332 326.028C196.516 326.484 195.592 326.82 194.56 327.036C193.552 327.276 192.568 327.396 191.608 327.396ZM204.633 327.324C203.721 327.324 203.025 327.084 202.545 326.604C202.065 326.124 201.825 325.44 201.825 324.552V311.772C201.825 310.884 202.053 310.212 202.509 309.756C202.989 309.276 203.649 309.036 204.489 309.036C205.353 309.036 206.013 309.276 206.469 309.756C206.925 310.212 207.153 310.884 207.153 311.772V313.644H206.793C207.081 312.204 207.717 311.088 208.701 310.296C209.685 309.504 210.957 309.06 212.517 308.964C213.117 308.916 213.573 309.072 213.885 309.432C214.221 309.768 214.401 310.332 214.425 311.124C214.473 311.868 214.317 312.456 213.957 312.888C213.621 313.32 213.045 313.584 212.229 313.68L211.401 313.752C210.033 313.872 209.013 314.268 208.341 314.94C207.693 315.612 207.369 316.584 207.369 317.856V324.552C207.369 325.44 207.129 326.124 206.649 326.604C206.193 327.084 205.521 327.324 204.633 327.324ZM219.037 327.288C218.149 327.288 217.465 327.036 216.985 326.532C216.529 326.004 216.301 325.272 216.301 324.336V312.024C216.301 311.064 216.529 310.332 216.985 309.828C217.465 309.3 218.149 309.036 219.037 309.036C219.901 309.036 220.561 309.3 221.017 309.828C221.497 310.332 221.737 311.064 221.737 312.024V324.336C221.737 325.272 221.509 326.004 221.053 326.532C220.597 327.036 219.925 327.288 219.037 327.288ZM219.037 306.084C218.029 306.084 217.249 305.856 216.697 305.4C216.169 304.92 215.905 304.248 215.905 303.384C215.905 302.496 216.169 301.824 216.697 301.368C217.249 300.888 218.029 300.648 219.037 300.648C220.045 300.648 220.813 300.888 221.341 301.368C221.869 301.824 222.133 302.496 222.133 303.384C222.133 304.248 221.869 304.92 221.341 305.4C220.813 305.856 220.045 306.084 219.037 306.084ZM234.07 327.396C232.174 327.396 230.518 327.024 229.102 326.28C227.71 325.536 226.63 324.468 225.862 323.076C225.094 321.684 224.71 320.04 224.71 318.144C224.71 316.728 224.926 315.456 225.358 314.328C225.79 313.2 226.414 312.24 227.23 311.448C228.07 310.632 229.066 310.02 230.218 309.612C231.37 309.18 232.654 308.964 234.07 308.964C235.966 308.964 237.61 309.336 239.002 310.08C240.418 310.824 241.51 311.88 242.278 313.248C243.07 314.616 243.466 316.248 243.466 318.144C243.466 319.584 243.238 320.868 242.782 321.996C242.35 323.124 241.726 324.096 240.91 324.912C240.094 325.728 239.098 326.352 237.922 326.784C236.77 327.192 235.486 327.396 234.07 327.396ZM234.07 323.328C234.862 323.328 235.546 323.136 236.122 322.752C236.698 322.368 237.154 321.804 237.49 321.06C237.826 320.292 237.994 319.32 237.994 318.144C237.994 316.392 237.634 315.108 236.914 314.292C236.194 313.452 235.246 313.032 234.07 313.032C233.302 313.032 232.618 313.212 232.018 313.572C231.442 313.932 230.986 314.496 230.65 315.264C230.338 316.008 230.182 316.968 230.182 318.144C230.182 319.896 230.542 321.204 231.262 322.068C231.982 322.908 232.918 323.328 234.07 323.328Z" fill="white"/>
<mask id="mask0_20_30" style="mask-type:alpha" maskUnits="userSpaceOnUse" x="125" y="174" width="100" height="100">
<rect x="125" y="174" width="100" height="100" rx="24" fill="#6A5AE0"/>
</mask>
<g mask="url(#mask0_20_30)">
<path d="M228.216 246.248C228.216 260.271 222.6 273.721 212.605 283.637C202.609 293.554 189.052 299.125 174.916 299.125C174.187 299.125 173.472 299.111 172.743 299.084C168.85 298.926 164.985 298.35 161.217 297.365C161.946 296.996 162.661 296.628 163.376 296.232C163.39 296.232 163.404 296.218 163.431 296.205L163.445 296.191C164.201 295.782 164.944 295.372 165.673 294.949C165.852 294.84 166.031 294.745 166.21 294.649C166.897 294.24 167.585 293.83 168.259 293.394C168.458 293.287 168.651 293.168 168.837 293.039C169.359 292.725 169.882 292.384 170.391 292.043C170.749 291.811 171.12 291.565 171.464 291.333C171.987 290.978 172.496 290.624 173.004 290.255C173.348 290.023 173.665 289.791 173.995 289.532C174.435 289.232 174.861 288.904 175.288 288.577C175.673 288.304 176.044 288.017 176.416 287.717C176.938 287.321 177.447 286.912 177.956 286.475C178.176 286.312 178.396 286.134 178.616 285.943C179.167 285.493 179.703 285.029 180.239 284.551C180.528 284.306 180.817 284.06 181.106 283.787C181.422 283.514 181.725 283.241 182.028 282.955C182.605 282.436 183.169 281.89 183.733 281.345C183.809 281.283 183.878 281.215 183.94 281.14C184.49 280.621 185.026 280.075 185.549 279.53C185.92 279.175 186.264 278.806 186.594 278.438C186.993 278.042 187.365 277.633 187.736 277.224C187.956 276.992 188.162 276.76 188.355 276.528C188.85 275.982 189.331 275.422 189.813 274.863C190.06 274.576 190.308 274.276 190.542 273.976C190.9 273.566 191.243 273.157 191.56 272.734C191.89 272.338 192.206 271.929 192.509 271.52C192.798 271.165 193.073 270.796 193.334 270.442C193.692 269.978 194.036 269.514 194.366 269.036C194.696 268.558 195.053 268.081 195.384 267.59C195.547 267.375 195.699 267.152 195.838 266.921C196.305 266.239 196.759 265.543 197.199 264.847C197.763 263.987 198.3 263.114 198.809 262.227C199.042 261.845 199.262 261.463 199.483 261.081C201.266 257.96 202.856 254.733 204.242 251.419C204.448 250.955 204.641 250.491 204.819 250.014C205.04 249.509 205.232 248.99 205.425 248.472C205.59 248.049 205.755 247.612 205.906 247.175C206.085 246.698 206.25 246.207 206.415 245.729C207.02 243.982 207.57 242.222 208.052 240.434C208.176 239.984 208.299 239.547 208.409 239.097C208.492 238.811 208.561 238.538 208.63 238.251L208.96 236.859C209.4 234.962 209.771 233.052 210.088 231.114L210.294 229.804C210.321 229.6 210.349 229.409 210.376 229.204C210.459 228.685 210.528 228.167 210.583 227.648C210.679 226.87 210.775 226.093 210.844 225.315C210.872 225.11 210.885 224.905 210.899 224.701C210.954 224.169 210.995 223.623 211.037 223.091C211.078 222.558 211.105 221.999 211.133 221.453C211.16 221.071 211.174 220.689 211.188 220.293C211.243 219.038 211.27 217.782 211.27 216.527C211.27 215.886 211.27 215.258 211.243 214.63C211.243 214.303 211.243 213.989 211.229 213.661C211.188 212.529 211.133 211.41 211.05 210.291L211.05 210.25C211.037 209.977 211.023 209.704 210.995 209.431C210.94 208.681 210.872 207.944 210.803 207.193C210.803 207.17 210.799 207.146 210.789 207.125C212.642 208.799 214.375 210.601 215.975 212.515L216.016 212.556C216.023 212.563 216.028 212.573 216.03 212.583C223.926 222.051 228.237 233.959 228.216 246.248Z" fill="#FF8FA2"/>
<path d="M211.216 216.283C211.224 232.606 206.788 248.628 198.377 262.653C189.966 276.677 177.895 288.183 163.439 295.951C163.421 295.972 163.397 295.987 163.37 295.992L163.356 296.006C162.642 296.388 161.927 296.757 161.213 297.125C156.728 295.951 152.422 294.189 148.406 291.885C145.501 290.223 142.759 288.295 140.216 286.126C140.697 285.621 141.165 285.116 141.632 284.597L141.645 284.584C141.645 284.57 141.659 284.557 141.673 284.543L141.687 284.543C156.723 267.946 165.027 246.401 164.992 224.075C164.994 214.458 163.463 204.901 160.457 195.759L160.443 195.759C160.443 195.731 160.43 195.704 160.43 195.677L160.416 195.677C160.408 195.655 160.403 195.632 160.402 195.609C160.127 194.776 159.839 193.944 159.536 193.125L174.899 193.125C188.155 193.107 200.938 198.014 210.736 206.881C210.845 207.918 210.928 208.955 210.997 210.006C211.148 212.08 211.216 214.168 211.216 216.283Z" fill="#9087E5"/>
<path d="M165 223.95C165 224.864 164.986 225.779 164.959 226.679C164.945 227.266 164.918 227.839 164.891 228.426C164.782 230.773 164.577 233.107 164.277 235.427C164.209 236.027 164.127 236.614 164.032 237.201C163.937 237.924 163.814 238.633 163.691 239.357C163.582 240.039 163.459 240.708 163.323 241.39C163.296 241.554 163.255 241.718 163.228 241.881C163.119 242.441 162.996 243.014 162.873 243.573C162.233 246.482 161.446 249.356 160.515 252.184C160.337 252.744 160.146 253.29 159.956 253.822C159.939 253.887 159.916 253.951 159.887 254.013C159.697 254.572 159.506 255.105 159.301 255.65C159.247 255.814 159.179 255.992 159.11 256.169C158.892 256.756 158.66 257.329 158.429 257.902C158.17 258.557 157.897 259.212 157.611 259.854C157.324 260.522 157.024 261.191 156.724 261.86C156.438 262.474 156.138 263.088 155.852 263.688C155.538 264.33 155.225 264.957 154.898 265.571C154.57 266.185 154.243 266.813 153.902 267.427C153.562 268.041 153.221 268.655 152.88 269.256C152.539 269.856 152.171 270.47 151.803 271.071C151.435 271.671 151.067 272.258 150.685 272.845C149.935 274.018 149.158 275.178 148.354 276.311C147.549 277.444 146.704 278.563 145.859 279.668C144.577 281.292 143.25 282.875 141.878 284.417L141.864 284.417C141.85 284.431 141.85 284.431 141.85 284.444C141.85 284.448 141.849 284.451 141.846 284.454C141.844 284.456 141.84 284.458 141.837 284.458C141.373 284.977 140.896 285.495 140.419 286C138.271 284.152 136.274 282.135 134.447 279.968C134.434 279.942 134.415 279.919 134.393 279.9C126.375 270.382 121.985 258.329 122 245.88L122 193L159.588 193C159.887 193.819 160.174 194.638 160.433 195.47L160.446 195.484C160.448 195.507 160.452 195.53 160.46 195.552L160.474 195.552L160.474 195.593C160.473 195.6 160.474 195.608 160.476 195.615C160.478 195.622 160.482 195.628 160.487 195.634L160.501 195.634C160.513 195.686 160.531 195.736 160.555 195.784L160.719 196.316C161.183 197.763 161.605 199.223 161.987 200.71C162.26 201.706 162.505 202.73 162.737 203.753C163.159 205.609 163.528 207.506 163.841 209.43C163.909 209.894 163.991 210.345 164.046 210.809C164.209 211.941 164.359 213.074 164.482 214.22C164.536 214.643 164.577 215.08 164.605 215.503C164.686 216.294 164.741 217.099 164.795 217.891C164.932 219.897 165 221.917 165 223.95Z" fill="#C4D0FB"/>
</g>
<rect x="125" y="174" width="100" height="90" rx="24" fill="white"/>
<mask id="mask1_20_30" style="mask-type:alpha" maskUnits="userSpaceOnUse" x="148" y="188" width="54" height="62">
<path fill-rule="evenodd" clip-rule="evenodd" d="M173.388 235.576C175.258 235.489 177.098 235.191 178.873 234.696L181.377 237.177C183.734 239.511 187.563 239.52 189.93 237.196C192.297 234.873 192.306 231.097 189.949 228.762L187.106 225.945C186.575 225.42 185.971 225.012 185.325 224.723C183.457 223.396 180.821 223.57 178.694 224.603C176.911 225.468 174.951 225.972 172.931 226.066C169.314 226.233 165.763 225.07 162.973 222.805C160.183 220.539 158.354 217.333 157.844 213.813C157.333 210.294 158.179 206.714 160.214 203.774C162.249 200.834 165.329 198.745 168.85 197.915C172.371 197.085 176.081 197.574 179.254 199.287C182.428 200.999 184.836 203.812 186.009 207.175C186.638 208.978 186.887 210.869 186.762 212.738C186.582 215.428 187.626 218.335 190.107 219.389C192.542 220.423 195.411 219.31 195.968 216.724C196.867 212.55 196.612 208.184 195.185 204.092C193.23 198.486 189.215 193.798 183.926 190.944C178.638 188.09 172.454 187.275 166.586 188.658C160.717 190.041 155.585 193.523 152.193 198.423C148.8 203.323 147.392 209.289 148.242 215.155C149.092 221.02 152.141 226.364 156.791 230.14C161.441 233.917 167.359 235.855 173.388 235.576ZM191.686 239.81C189.319 242.133 189.31 245.909 191.666 248.244C194.023 250.578 197.852 250.586 200.219 248.263C202.586 245.939 202.595 242.163 200.238 239.829C197.882 237.495 194.053 237.486 191.686 239.81Z" fill="#6A5AE0"/>
</mask>
<g mask="url(#mask1_20_30)">
<path fill-rule="evenodd" clip-rule="evenodd" d="M180.816 269.32L229.83 220.928L219.232 210.809L163.154 266.681L180.816 269.32Z" fill="#6A5AE0"/>
<path fill-rule="evenodd" clip-rule="evenodd" d="M171.189 256.428L218.717 210.496L208.441 200.892L154.061 253.923L171.189 256.428Z" fill="#6A5AE0"/>
<path fill-rule="evenodd" clip-rule="evenodd" d="M156.894 254.472L212.744 199.247L202.955 188.923L147.104 244.148L156.894 254.472Z" fill="#6A5AE0"/>
<path fill-rule="evenodd" clip-rule="evenodd" d="M146.809 245.519L202.553 190.138L188.068 184.033L138.908 232.873L146.809 245.519Z" fill="#6A5AE0"/>
<path fill-rule="evenodd" clip-rule="evenodd" d="M138.908 233.619L189.42 184.033L162.36 186.69L138.908 211.925V233.619Z" fill="#6A5AE0"/>
</g>
</g>
<defs>
<clipPath id="clip0_20_30">
<rect width="374" height="514" fill="white"/>
</clipPath>
</defs>
</svg>
