<svg width="418" height="418" viewBox="0 0 418 418" fill="none" xmlns="http://www.w3.org/2000/svg">
<circle cx="209" cy="209" r="209" fill="#C21292"/>
<path d="M99.7944 127.107C89.8845 132.541 90.2425 145.885 101.185 149.95C101.571 150.097 101.813 150.367 101.911 150.761L104.07 158.933C104.175 159.347 104.084 159.712 103.796 160.028C98.0883 166.294 94.9184 173.34 102.353 179.732C102.669 179.999 102.68 180.28 102.385 180.575C94.0549 188.863 99.4995 194.065 108.367 197.014C108.704 197.126 108.897 197.358 108.946 197.709C109.409 201.174 107.851 205.176 111.874 206.608" stroke="#9B8F92" stroke-width="2"/>
<path d="M111.874 206.608C104.411 206.299 99.5383 209.574 97.2565 216.434C92.0435 232.146 103.101 248.491 120.583 246.1C122.409 245.847 124.231 245.619 126.049 245.416C126.407 245.38 126.667 245.524 126.828 245.847C139.634 272.197 162.656 288.457 190.964 295.134C191.476 295.253 191.767 295.351 191.838 295.428C192.385 296.039 192.248 296.471 191.427 296.724L182.012 299.578" stroke="#FCDAC9" stroke-width="2"/>
<path d="M182.012 299.578C166.187 301.895 151.352 307.013 137.507 314.932" stroke="#A6BBCC" stroke-width="2"/>
<path d="M137.507 314.932L128.661 319.219C128.556 319.268 128.465 319.342 128.394 319.434C128.323 319.526 128.275 319.633 128.253 319.747C128.232 319.861 128.238 319.978 128.27 320.089C128.302 320.201 128.36 320.303 128.439 320.387C173.26 367.641 254.972 372.528 298.561 320.008C298.765 319.763 298.726 319.57 298.445 319.429L290.916 315.617" stroke="#E8EEEE" stroke-width="2"/>
<path d="M290.916 315.617C276.024 307.676 260.266 302.231 243.641 299.283" stroke="#A6BBCC" stroke-width="2"/>
<path d="M243.641 299.283L229.466 294.965" stroke="#EDC8B7" stroke-width="2"/>
<path d="M229.466 294.965C257.942 288.878 282.501 272.607 294.665 245.552C294.826 245.194 295.1 245.05 295.486 245.121C297.498 245.489 299.804 246.153 301.384 246.3C312.048 247.283 319.49 242.951 323.71 233.304C327.712 224.153 325.669 208.588 313.41 206.861" stroke="#F6D1BF" stroke-width="2"/>
<path d="M313.41 206.861L315.295 197.856C315.328 197.69 315.4 197.534 315.506 197.4C315.613 197.266 315.75 197.159 315.906 197.088C325.026 192.97 321.193 185.05 318.149 178.405C317.995 178.068 318.048 177.766 318.307 177.5C325.374 170.17 324.257 167.263 319.624 159.091C319.462 158.81 319.445 158.519 319.571 158.217C324.022 147.447 321.425 139.303 311.778 133.784C311.434 133.588 311.265 133.293 311.272 132.9C311.293 131.889 311.757 130.53 311.82 129.877C312.29 124.829 310.304 121.129 305.859 118.777C305.714 118.702 305.594 118.586 305.511 118.444C305.429 118.303 305.389 118.141 305.396 117.977C305.571 114.312 304.153 111.444 301.141 109.373" stroke="#9B8F92" stroke-width="2"/>
<path d="M301.141 109.373C297.14 106.782 292.432 108.141 288.241 109.036C288.156 109.055 288.067 109.052 287.983 109.029C287.9 109.005 287.823 108.961 287.76 108.9C287.698 108.84 287.651 108.765 287.625 108.682C287.598 108.599 287.593 108.511 287.609 108.425C288.571 102.773 287.507 98.0728 284.418 94.3236C280.5 89.5635 276.667 91.059 271.728 91.3328C271.363 91.3538 271.04 91.245 270.759 91.0063C267.438 88.0927 263.534 86.7903 259.048 87.0992C258.605 87.1265 258.168 86.983 257.829 86.6987C257.49 86.4143 257.274 86.0109 257.226 85.5722C256.531 79.4009 253.175 77.0103 247.158 78.4004C246.744 78.4917 246.375 78.4004 246.052 78.1266C242.549 75.1497 238.698 74.8022 234.5 77.084C234.371 77.1539 234.226 77.1898 234.079 77.1882C233.932 77.1866 233.788 77.1476 233.661 77.0748C233.533 77.0021 233.426 76.8981 233.35 76.7725C233.274 76.647 233.231 76.5041 233.225 76.3573C232.783 65.8261 221.325 59.4441 212.005 64.9204C210.762 65.6506 209.544 66.4158 208.351 67.2162C207.993 67.4549 207.687 67.3988 207.434 67.0477C203.004 60.8764 197.644 60.1111 191.353 64.7519C191.219 64.8527 191.055 64.9072 190.887 64.9072C190.718 64.9072 190.553 64.8527 190.416 64.7519C179.074 56.4427 172.534 63.0037 169.564 74.3037C169.524 74.4597 169.424 74.5937 169.286 74.6765C169.148 74.7594 168.983 74.7844 168.827 74.7461C166.405 74.1879 163.961 73.3559 161.602 73.4928C153.767 73.9632 149.811 78.3477 149.734 86.6464C149.732 86.7247 149.715 86.802 149.684 86.8738C149.652 86.9455 149.607 87.0102 149.55 87.0641C149.493 87.1181 149.426 87.1601 149.353 87.1878C149.279 87.2156 149.201 87.2284 149.123 87.2256C139.971 86.9623 136.285 92.5755 134.421 100.621C134.356 100.903 134.182 101.147 133.937 101.301C133.693 101.455 133.397 101.506 133.115 101.443C124.111 99.4102 114.854 97.8727 111.979 109.341C111.895 109.699 111.663 109.864 111.284 109.836C100.037 108.962 94.0865 116.492 99.7945 127.107" stroke="#A19496" stroke-width="2"/>
<path d="M301.141 109.373C300.938 110.51 301.429 111.388 302.616 112.006C303.016 112.209 303.255 112.536 303.332 112.985L304.354 118.798C304.386 118.973 304.461 119.137 304.571 119.275C304.681 119.413 304.824 119.521 304.985 119.588C313.316 123.137 306.175 133.605 313.379 135.996C313.524 136.025 313.652 136.111 313.734 136.234C313.816 136.358 313.845 136.509 313.816 136.654C313.787 136.799 313.701 136.927 313.577 137.009C313.454 137.091 313.303 137.12 313.158 137.091C311.03 136.933 308.987 136.796 306.786 137.049C288.199 139.166 271.159 132.805 254.256 126.118C247.895 123.601 229.782 115.723 223.705 118.514C221.332 119.602 219.63 120.034 218.598 119.809C209.593 117.882 202.274 115.923 191.785 116.018C164.846 116.239 142.393 127.276 126.712 149.392C126.516 149.658 126.253 149.813 125.923 149.855C122.258 150.329 125.027 155.868 120.583 157.248C118.498 157.887 116.395 157.817 114.275 157.037C114.008 156.939 113.752 156.967 113.506 157.122C111.653 158.322 107.356 159.523 105.776 157.143C104.481 155.194 103.375 153.973 103.207 151.424C103.179 151.073 103.049 150.771 102.817 150.518C102.066 149.697 101.455 149.178 100.985 148.96C93.4547 145.506 91.2116 137.997 96.4456 131.446C97.583 130.021 98.6993 128.575 99.7945 127.108" stroke="#3E262A" stroke-width="2"/>
<path d="M313.41 206.861C307.274 206.264 303.939 208.96 303.406 214.949C303.403 214.97 303.392 214.99 303.375 215.005C303.358 215.02 303.337 215.028 303.316 215.028C303.295 215.028 303.276 215.02 303.263 215.005C303.25 214.99 303.245 214.97 303.248 214.949C302.981 210.041 302.482 205.814 301.752 202.269C298.452 186.268 294.345 170.142 289.431 153.888C289.398 153.787 289.346 153.692 289.277 153.611C289.208 153.529 289.124 153.462 289.029 153.413C288.934 153.364 288.831 153.334 288.724 153.325C288.618 153.317 288.511 153.329 288.409 153.362C284.484 154.612 281.508 153.601 279.479 150.329C279.399 150.201 279.277 150.104 279.134 150.054C278.99 150.004 278.833 150.005 278.689 150.055C270.643 152.898 267.757 146.58 264.703 140.924C264.627 140.779 264.505 140.662 264.356 140.588C264.207 140.514 264.038 140.488 263.871 140.514C260.178 141.075 257.173 139.934 254.857 137.091C254.555 136.712 254.161 136.519 253.677 136.512L245.473 136.333C245.115 136.326 244.775 136.235 244.452 136.059L240.639 133.932C240.267 133.728 239.885 133.7 239.491 133.847C234.405 135.838 228.992 137.607 225.432 134.026C222.61 131.183 218.882 126.634 215.712 131.288C207.54 143.315 192.67 136.975 181.57 134.848C181.051 134.751 180.515 134.84 180.056 135.1C179.598 135.36 179.246 135.775 179.063 136.27C174.745 148.202 164.699 146.201 154.62 144.231C154.144 144.136 153.65 144.208 153.22 144.434C152.791 144.661 152.452 145.028 152.261 145.474L150.608 149.318" stroke="#936353" stroke-width="2"/>
<path d="M150.608 149.318C147.891 154.025 141.751 152.635 137.707 151.098C137.23 150.912 136.705 150.895 136.216 151.051C135.728 151.206 135.306 151.523 135.021 151.951C134.165 153.235 133.28 154.475 132.368 155.668C132.164 155.935 131.894 156.075 131.557 156.089C129.619 156.174 128.471 156.995 128.113 158.554C125.108 171.521 122.458 187.392 120.162 206.166C119.783 209.269 119.639 212.418 119.73 215.612C119.751 216.419 119.667 216.43 119.477 215.644C118.361 210.989 115.826 207.977 111.874 206.608" stroke="#996C5D" stroke-width="2"/>
<path d="M220.556 233.631C215.891 241.034 209.814 240.55 204.644 234.442C204.557 234.336 204.439 234.261 204.307 234.227C204.175 234.193 204.036 234.202 203.909 234.252C203.783 234.303 203.675 234.392 203.603 234.508C203.53 234.623 203.497 234.759 203.506 234.895C203.787 239.809 206.655 242.705 212.11 243.583" stroke="#EAA482" stroke-width="2"/>
<path d="M212.237 261.686C203.411 261.735 194.284 261.1 184.855 259.78" stroke="#FCDAC9" stroke-width="2"/>
<path d="M184.855 259.78C184.378 259.591 183.915 259.549 183.465 259.654C182.574 259.879 182.272 260.43 182.56 261.307C183.929 265.492 186.916 268.156 191.522 269.301C198.915 271.14 205.999 272.021 212.774 271.944" stroke="#D17D6B" stroke-width="2"/>
<path d="M212.331 296.903L194.302 295.913C194.151 295.903 194.001 295.949 193.882 296.042C193.762 296.134 193.68 296.267 193.652 296.416C193.623 296.565 193.65 296.719 193.727 296.849C193.804 296.979 193.926 297.077 194.07 297.124L212.437 303.211" stroke="#EAA482" stroke-width="2"/>
<path d="M212.437 303.211C211.636 308.87 211.696 314.413 212.616 319.84" stroke="#F4AE8A" stroke-width="2"/>
<path d="M212.616 319.84C197.921 319.819 187.72 313.065 182.012 299.578" stroke="#A39897" stroke-width="2"/>
<path d="M229.466 294.965L212.331 296.903" stroke="#E59C77" stroke-width="2"/>
<path d="M212.331 296.903C211.629 288.513 211.777 280.193 212.774 271.944" stroke="#F4AE8A" stroke-width="2"/>
<path d="M212.774 271.944C221.462 271.702 235.469 271.143 239.428 262.287C240.074 260.833 239.902 259.64 238.912 258.706C238.837 258.637 238.742 258.596 238.64 258.588C238.539 258.581 238.438 258.607 238.354 258.664C238.249 258.734 238.189 258.818 238.175 258.917" stroke="#CB7461" stroke-width="2"/>
<path d="M238.175 258.916C237.712 258.551 237.245 258.428 236.774 258.548C228.799 260.605 220.619 261.651 212.237 261.686" stroke="#F6D1BF" stroke-width="2"/>
<path d="M212.237 261.686L212.11 243.583" stroke="#F4AE8A" stroke-width="2"/>
<path d="M212.11 243.583C216.842 243.646 220.142 241.519 222.01 237.201C222.61 235.811 222.599 233.61 220.556 233.631" stroke="#E59C77" stroke-width="2"/>
<path d="M220.556 233.631C218.482 230.587 211.678 227.481 211.699 224.332C211.896 197.526 212.015 170.117 212.058 142.104C212.058 140.847 211.471 140.447 210.299 140.903C201.853 144.178 192.785 141.472 184.36 139.239C184.009 139.141 183.697 139.215 183.423 139.461C174.798 147.064 170.986 149.96 158.896 149.95C156.137 149.943 153.374 149.732 150.608 149.318" stroke="#F4AE8A" stroke-width="2"/>
<path d="M290.916 315.617C281.574 322.062 274.561 327.159 262.597 331.677C219.861 347.811 174.472 341.766 137.507 314.932" stroke="#8FACBC" stroke-width="2"/>
<path d="M243.641 299.283C243.704 299.704 243.595 300.048 243.314 300.315" stroke="#948684" stroke-width="2"/>
<path d="M243.314 300.315L236.848 298.493C236.688 298.449 236.52 298.448 236.359 298.49C236.198 298.533 236.05 298.617 235.932 298.735C235.82 298.841 235.749 298.97 235.721 299.125C235.688 299.31 235.611 299.484 235.495 299.631C235.379 299.778 235.229 299.893 235.058 299.967C227.412 303.443 219.872 304.524 212.437 303.211" stroke="#E59C77" stroke-width="2"/>
<path d="M243.314 300.315C243.448 300.729 243.441 301.091 243.293 301.4C237.284 313.77 227.058 319.917 212.616 319.84" stroke="#9E8F8C" stroke-width="2"/>
<path d="M238.175 258.917C233.267 268.479 209.551 267.51 200.747 266.131C193.628 265.025 189.142 264.498 184.855 259.78" stroke="#D3A0A0" stroke-width="2"/>
<path d="M275.529 185.124C274.466 178.468 254.72 170.654 248.906 170.075C244.568 169.647 242.184 171.49 241.756 175.604C241.229 180.659 244.367 182.291 248.959 182.902C257.145 184.004 265.525 185.223 274.097 186.556C274.292 186.587 274.492 186.571 274.68 186.51C274.867 186.449 275.038 186.344 275.177 186.205C275.317 186.065 275.422 185.894 275.483 185.707C275.544 185.519 275.56 185.319 275.529 185.124Z" stroke="#825743" stroke-width="2"/>
<path d="M240.207 219.403C244.841 238.191 267.862 237.644 275.856 221.973" stroke="#F6D1BF" stroke-width="2"/>
<path d="M275.856 221.973C276.719 220.281 277.951 218.786 279.552 217.487C279.697 217.372 279.799 217.212 279.843 217.033C279.887 216.854 279.87 216.665 279.794 216.497C278.973 214.601 279.408 213.373 281.1 212.811C281.423 212.699 281.694 212.516 281.911 212.263C282.585 211.477 282.705 210.701 282.269 209.936C282.16 209.744 281.988 209.597 281.783 209.52C281.579 209.443 281.356 209.441 281.153 209.515L279.457 210.125C279.309 210.179 279.147 210.179 278.999 210.125C278.85 210.071 278.726 209.967 278.647 209.831C273.697 201.328 266.234 196.838 256.257 196.361C243.325 195.74 236.806 208.072 240.207 219.403" stroke="#785340" stroke-width="2"/>
<path d="M275.856 221.973C277.625 213.527 273.318 206.576 265.672 203.017" stroke="#807F7F" stroke-width="2"/>
<path d="M265.672 203.017L262.702 201.026C262.488 200.881 262.231 200.812 261.972 200.831C261.714 200.851 261.47 200.957 261.279 201.133C261.089 201.308 260.963 201.543 260.924 201.799C260.884 202.055 260.932 202.317 261.059 202.543C264.008 207.84 266.778 212.189 263.145 217.982C260.385 222.384 255.141 223.405 250.655 221.057C247.558 219.435 246.6 216.265 246.484 212.99C246.47 212.597 246.323 212.54 246.042 212.821L245.61 213.242C245.399 213.46 245.305 213.716 245.326 214.011L246.052 223.689" stroke="#371B11" stroke-width="2"/>
<path d="M246.052 223.689C243.009 219.424 243.83 214.275 244.409 209.588C244.427 209.434 244.386 209.28 244.295 209.155C244.204 209.029 244.07 208.942 243.919 208.911C243.767 208.879 243.61 208.905 243.476 208.984C243.343 209.062 243.244 209.188 243.198 209.335L240.207 219.403" stroke="#807F7F" stroke-width="2"/>
<path d="M265.672 203.017C270.074 208.247 271.117 213.741 268.8 219.498C265.019 228.913 252.392 232.767 246.053 223.69" stroke="#B69990" stroke-width="2"/>
<path d="M317.054 219.446C314.527 215.496 309.967 213.832 305.501 215.338C304.596 215.64 304.61 215.693 305.543 215.496C310.142 214.542 313.933 215.89 316.917 219.54C316.931 219.555 316.95 219.564 316.97 219.566C316.99 219.568 317.01 219.563 317.026 219.552C317.043 219.54 317.055 219.523 317.06 219.504C317.065 219.484 317.063 219.464 317.054 219.446Z" stroke="#E59C77" stroke-width="2"/>
<path d="M285.673 241.915C285.562 240.818 285.037 239.774 284.13 238.843C283.222 237.912 281.95 237.111 280.384 236.486C278.819 235.862 276.991 235.426 275.006 235.204C273.021 234.982 270.918 234.977 268.815 235.191C264.569 235.622 260.587 236.915 257.743 238.786C254.9 240.657 253.429 242.952 253.654 245.167C253.766 246.264 254.29 247.307 255.197 248.239C256.105 249.17 257.378 249.971 258.943 250.595C260.508 251.22 262.336 251.656 264.321 251.878C266.306 252.1 268.409 252.105 270.512 251.891C274.758 251.46 278.74 250.167 281.584 248.296C284.427 246.425 285.898 244.13 285.673 241.915Z" stroke="#E28770" stroke-width="2"/>
<path d="M174.292 182.323C182.138 181.101 180.011 168.411 173.06 169.78C164.804 171.402 150.987 176.594 145.858 183.997C145.716 184.205 145.621 184.441 145.58 184.689C145.54 184.937 145.555 185.191 145.625 185.432C145.694 185.673 145.817 185.895 145.983 186.082C146.149 186.269 146.354 186.417 146.585 186.514C147.259 186.802 148.213 186.83 149.449 186.598C157.72 185.047 166.001 183.622 174.292 182.323Z" stroke="#885F4E" stroke-width="2"/>
<path d="M147.164 218.94C153.009 238.465 178.979 239.813 183.307 218.15" stroke="#FCDAC9" stroke-width="2"/>
<path d="M183.307 218.15C186.224 190.242 155.126 191.58 144.099 209.557C143.615 210.357 142.888 210.694 142.067 210.262C141.919 210.184 141.75 210.155 141.584 210.179C141.419 210.204 141.265 210.28 141.146 210.397C141.026 210.514 140.947 210.666 140.919 210.831C140.892 210.996 140.918 211.166 140.993 211.315C141.484 212.312 142.263 212.944 143.331 213.211C143.682 213.295 143.833 213.516 143.783 213.874L143.215 217.982C143.203 218.069 143.209 218.157 143.232 218.242C143.255 218.326 143.295 218.405 143.349 218.473C143.403 218.541 143.471 218.597 143.547 218.638C143.624 218.678 143.708 218.702 143.794 218.708L147.164 218.94" stroke="#7D5C4A" stroke-width="2"/>
<path d="M183.307 218.15L180.106 209.894C180.059 209.769 179.969 209.666 179.851 209.604C179.734 209.542 179.598 209.526 179.468 209.558C179.338 209.59 179.223 209.669 179.145 209.779C179.067 209.889 179.03 210.023 179.042 210.157C179.769 217.013 180.274 223.395 173.081 226.912" stroke="#807F7F" stroke-width="2"/>
<path d="M173.081 226.912C177.392 223.163 178.937 218.61 177.715 213.253C177.582 212.677 177.413 212.667 177.209 213.222C170.596 231.019 152.451 217.982 161.697 203.764C161.763 203.665 161.8 203.55 161.806 203.431C161.811 203.312 161.783 203.193 161.726 203.088C161.669 202.982 161.585 202.894 161.481 202.831C161.378 202.769 161.26 202.734 161.139 202.732C160.395 202.725 160.001 202.325 159.959 201.532C159.945 201.216 159.78 201.072 159.464 201.1C158.938 201.149 158.559 201.307 158.327 201.574" stroke="#371B11" stroke-width="2"/>
<path d="M158.327 201.574C150.674 205.028 146.953 210.817 147.164 218.94" stroke="#807F7F" stroke-width="2"/>
<path d="M173.081 226.912C165.552 231.756 156.505 226.533 154.42 218.255C152.798 211.852 154.143 206.467 158.453 202.1C158.545 202.002 158.559 201.897 158.496 201.784C158.432 201.679 158.376 201.609 158.327 201.574" stroke="#B69990" stroke-width="2"/>
<path d="M115.644 214.738C110.326 213.59 105.86 215.917 103.47 220.846C103.458 220.89 103.462 220.935 103.483 220.974C103.503 221.013 103.538 221.044 103.582 221.06C103.625 221.076 103.675 221.077 103.722 221.063C103.768 221.049 103.81 221.021 103.838 220.983C106.078 216.398 109.771 214.45 114.917 215.138C115.036 215.159 115.145 215.138 115.244 215.075L115.665 214.833C115.735 214.79 115.728 214.759 115.644 214.738Z" stroke="#EAA482" stroke-width="2"/>
<path d="M165.297 244.954C165.421 242.658 163.899 240.368 161.064 238.587C158.229 236.805 154.315 235.679 150.181 235.455C148.135 235.344 146.096 235.458 144.182 235.791C142.267 236.123 140.515 236.668 139.024 237.393C137.533 238.118 136.334 239.01 135.494 240.018C134.654 241.025 134.19 242.129 134.128 243.266C134.004 245.561 135.526 247.851 138.361 249.632C141.196 251.414 145.111 252.54 149.244 252.764C151.29 252.875 153.329 252.761 155.243 252.428C157.158 252.096 158.91 251.551 160.401 250.826C161.892 250.101 163.091 249.209 163.931 248.201C164.771 247.194 165.235 246.09 165.297 244.954Z" stroke="#F69C82" stroke-width="2"/>
<path d="M252.895 202.813C252.639 202.461 252.304 202.171 251.91 201.96C251.516 201.749 251.07 201.621 250.598 201.583C250.125 201.545 249.636 201.599 249.158 201.74C248.679 201.882 248.221 202.108 247.81 202.408C246.978 203.012 246.386 203.874 246.164 204.804C245.941 205.735 246.107 206.658 246.624 207.369C246.88 207.722 247.215 208.012 247.609 208.223C248.003 208.434 248.449 208.562 248.921 208.6C249.393 208.638 249.883 208.584 250.361 208.443C250.839 208.301 251.298 208.074 251.709 207.775C252.541 207.171 253.133 206.309 253.355 205.378C253.577 204.448 253.412 203.525 252.895 202.813Z" stroke="#807F7F" stroke-width="2"/>
<path d="M176.755 207.814C177.285 207.095 177.464 206.161 177.25 205.219C177.037 204.277 176.45 203.403 175.618 202.79C174.787 202.176 173.778 201.874 172.815 201.949C171.852 202.024 171.013 202.471 170.482 203.19C169.952 203.909 169.774 204.843 169.987 205.785C170.2 206.728 170.787 207.601 171.619 208.215C172.451 208.828 173.459 209.13 174.422 209.055C175.385 208.98 176.225 208.534 176.755 207.814Z" stroke="#807F7F" stroke-width="2"/>
<path d="M301.141 109.373C300.938 110.51 301.429 111.388 302.616 112.006C303.016 112.209 303.255 112.536 303.332 112.985L304.354 118.798C304.386 118.973 304.461 119.137 304.571 119.275C304.681 119.413 304.824 119.521 304.985 119.588C313.316 123.137 306.175 133.605 313.379 135.996C313.524 136.025 313.652 136.111 313.734 136.234C313.816 136.358 313.845 136.509 313.816 136.654C313.787 136.799 313.701 136.927 313.577 137.009C313.454 137.091 313.303 137.12 313.158 137.091C311.03 136.933 308.987 136.796 306.786 137.049C288.199 139.166 271.159 132.805 254.256 126.117C247.895 123.601 229.782 115.723 223.705 118.514C221.332 119.602 219.63 120.034 218.598 119.809C209.593 117.882 202.274 115.923 191.785 116.018C164.846 116.239 142.393 127.276 126.712 149.392C126.516 149.658 126.253 149.813 125.923 149.855C122.258 150.329 125.027 155.868 120.583 157.248C118.498 157.887 116.395 157.817 114.275 157.037C114.008 156.939 113.752 156.967 113.506 157.121C111.653 158.322 107.356 159.523 105.776 157.143C104.481 155.194 103.375 153.973 103.207 151.424C103.179 151.073 103.049 150.771 102.817 150.518C102.066 149.697 101.455 149.177 100.985 148.96C93.4547 145.506 91.2116 137.997 96.4456 131.446C97.583 130.021 98.6993 128.575 99.7945 127.107C94.0866 116.492 100.037 108.962 111.284 109.836C111.663 109.864 111.895 109.699 111.979 109.341C114.854 97.8727 124.111 99.4102 133.115 101.443C133.397 101.506 133.693 101.455 133.937 101.301C134.182 101.147 134.356 100.903 134.421 100.621C136.285 92.5755 139.971 86.9623 149.123 87.2256C149.201 87.2284 149.279 87.2156 149.353 87.1878C149.426 87.1601 149.493 87.1181 149.55 87.0641C149.607 87.0102 149.652 86.9455 149.684 86.8738C149.715 86.802 149.732 86.7247 149.734 86.6464C149.811 78.3477 153.767 73.9632 161.602 73.4928C163.961 73.3559 166.405 74.1879 168.827 74.7461C168.983 74.7844 169.148 74.7594 169.286 74.6765C169.424 74.5937 169.524 74.4597 169.564 74.3037C172.534 63.0037 179.074 56.4427 190.416 64.7519C190.553 64.8527 190.718 64.9072 190.887 64.9072C191.056 64.9072 191.219 64.8527 191.353 64.7519C197.644 60.1111 203.004 60.8764 207.434 67.0477C207.687 67.3988 207.993 67.4549 208.351 67.2162C209.544 66.4158 210.762 65.6506 212.005 64.9204C221.325 59.4441 232.783 65.8261 233.225 76.3573C233.231 76.5041 233.274 76.647 233.35 76.7725C233.426 76.898 233.533 77.0021 233.661 77.0748C233.788 77.1476 233.932 77.1866 234.079 77.1882C234.226 77.1898 234.371 77.1539 234.5 77.084C238.698 74.8022 242.549 75.1497 246.053 78.1266C246.375 78.4004 246.744 78.4917 247.158 78.4004C253.175 77.0103 256.531 79.4009 257.226 85.5722C257.274 86.0109 257.49 86.4143 257.829 86.6987C258.168 86.983 258.605 87.1265 259.048 87.0992C263.534 86.7903 267.438 88.0927 270.759 91.0063C271.04 91.245 271.363 91.3538 271.728 91.3328C276.667 91.059 280.5 89.5635 284.418 94.3236C287.507 98.0728 288.571 102.773 287.609 108.425C287.593 108.511 287.598 108.599 287.625 108.682C287.651 108.765 287.698 108.84 287.76 108.9C287.823 108.961 287.9 109.005 287.984 109.029C288.067 109.052 288.156 109.055 288.241 109.036C292.432 108.141 297.14 106.782 301.141 109.373Z" fill="#442B2E"/>
<path d="M301.141 109.373C304.153 111.444 305.572 114.312 305.396 117.977C305.389 118.141 305.429 118.303 305.511 118.444C305.594 118.586 305.714 118.702 305.859 118.777C310.304 121.129 312.29 124.829 311.82 129.877C311.757 130.53 311.293 131.889 311.272 132.9C311.265 133.293 311.434 133.588 311.778 133.784C321.425 139.303 324.022 147.447 319.571 158.217C319.445 158.519 319.462 158.81 319.624 159.091C324.257 167.263 325.374 170.17 318.307 177.5C318.048 177.766 317.995 178.068 318.149 178.405C321.193 185.05 325.026 192.97 315.906 197.088C315.75 197.159 315.613 197.266 315.506 197.4C315.4 197.534 315.328 197.69 315.295 197.856L313.41 206.861C307.274 206.264 303.939 208.96 303.406 214.949C303.403 214.97 303.392 214.99 303.375 215.005C303.358 215.02 303.337 215.028 303.316 215.028C303.295 215.028 303.276 215.02 303.263 215.005C303.25 214.99 303.245 214.97 303.248 214.949C302.981 210.041 302.482 205.815 301.752 202.269C298.452 186.269 294.345 170.142 289.431 153.889C289.398 153.787 289.346 153.692 289.277 153.611C289.208 153.529 289.124 153.462 289.029 153.413C288.934 153.364 288.831 153.334 288.724 153.326C288.618 153.317 288.511 153.329 288.409 153.362C284.484 154.612 281.508 153.601 279.479 150.329C279.399 150.201 279.277 150.104 279.134 150.054C278.99 150.004 278.833 150.005 278.689 150.055C270.643 152.899 267.757 146.58 264.703 140.925C264.627 140.779 264.505 140.662 264.356 140.588C264.207 140.515 264.038 140.489 263.871 140.514C260.178 141.075 257.173 139.935 254.857 137.091C254.555 136.712 254.161 136.519 253.677 136.512L245.473 136.333C245.115 136.326 244.775 136.235 244.452 136.059L240.639 133.932C240.267 133.728 239.885 133.7 239.491 133.848C234.405 135.838 228.992 137.607 225.432 134.027C222.61 131.183 218.882 126.634 215.712 131.288C207.54 143.315 192.669 136.975 181.57 134.848C181.051 134.751 180.515 134.84 180.056 135.1C179.597 135.361 179.246 135.775 179.063 136.27C174.745 148.202 164.698 146.201 154.62 144.231C154.144 144.137 153.65 144.208 153.22 144.435C152.791 144.661 152.452 145.028 152.261 145.474L150.608 149.318C147.891 154.025 141.751 152.635 137.707 151.098C137.23 150.912 136.705 150.896 136.216 151.051C135.728 151.206 135.306 151.523 135.021 151.951C134.165 153.236 133.28 154.475 132.368 155.668C132.164 155.935 131.894 156.076 131.557 156.09C129.619 156.174 128.471 156.995 128.113 158.554C125.108 171.521 122.458 187.392 120.162 206.166C119.783 209.269 119.639 212.418 119.73 215.612C119.751 216.42 119.667 216.43 119.477 215.644C118.361 210.989 115.826 207.977 111.874 206.608C107.851 205.176 109.409 201.174 108.946 197.709C108.897 197.358 108.704 197.126 108.367 197.014C99.4995 194.065 94.0549 188.863 102.385 180.575C102.68 180.28 102.669 179.999 102.353 179.732C94.9184 173.34 98.0883 166.294 103.796 160.028C104.084 159.712 104.175 159.347 104.07 158.933L101.911 150.761C101.813 150.368 101.571 150.097 101.185 149.95C90.2425 145.885 89.8845 132.542 99.7944 127.108C98.6991 128.575 97.5828 130.021 96.4454 131.446C91.2114 137.997 93.4546 145.506 100.984 148.96C101.455 149.178 102.066 149.697 102.817 150.519C103.049 150.771 103.178 151.073 103.207 151.424C103.375 153.973 104.481 155.194 105.776 157.143C107.356 159.523 111.653 158.322 113.506 157.122C113.752 156.967 114.008 156.939 114.275 157.037C116.395 157.817 118.498 157.887 120.583 157.248C125.027 155.868 122.258 150.329 125.922 149.855C126.252 149.813 126.516 149.658 126.712 149.392C142.393 127.276 164.846 116.239 191.785 116.018C202.274 115.923 209.593 117.882 218.597 119.809C219.629 120.034 221.332 119.602 223.705 118.514C229.782 115.723 247.895 123.601 254.256 126.118C271.159 132.805 288.198 139.166 306.786 137.049C308.987 136.796 311.03 136.933 313.158 137.091C313.303 137.12 313.454 137.091 313.577 137.009C313.701 136.927 313.786 136.799 313.816 136.654C313.845 136.509 313.815 136.358 313.734 136.234C313.652 136.111 313.524 136.025 313.379 135.996C306.175 133.605 313.315 123.137 304.985 119.588C304.824 119.521 304.681 119.413 304.571 119.275C304.461 119.137 304.386 118.973 304.353 118.798L303.332 112.985C303.255 112.536 303.016 112.209 302.616 112.006C301.429 111.388 300.938 110.51 301.141 109.373Z" fill="#382126"/>
<path d="M313.41 206.861C325.669 208.588 327.712 224.153 323.71 233.305C319.49 242.951 312.048 247.283 301.384 246.3C299.804 246.153 297.498 245.489 295.486 245.121C295.1 245.05 294.826 245.194 294.665 245.552C282.501 272.607 257.942 288.878 229.466 294.965L212.331 296.903C211.629 288.513 211.777 280.193 212.774 271.944C221.462 271.701 235.469 271.143 239.428 262.287C240.074 260.833 239.902 259.64 238.912 258.706C238.837 258.637 238.742 258.596 238.64 258.588C238.539 258.581 238.438 258.607 238.354 258.664C238.249 258.734 238.189 258.818 238.175 258.917C237.712 258.551 237.245 258.429 236.774 258.548C228.799 260.605 220.619 261.651 212.237 261.686L212.11 243.583C216.842 243.646 220.142 241.519 222.01 237.201C222.61 235.811 222.599 233.61 220.556 233.631C218.482 230.587 211.678 227.481 211.699 224.332C211.896 197.526 212.015 170.117 212.058 142.104C212.058 140.847 211.471 140.447 210.299 140.903C201.853 144.179 192.785 141.472 184.36 139.239C184.009 139.141 183.697 139.215 183.423 139.461C174.798 147.064 170.986 149.96 158.896 149.95C156.137 149.943 153.374 149.732 150.608 149.318L152.261 145.474C152.452 145.028 152.791 144.661 153.22 144.434C153.65 144.208 154.144 144.136 154.62 144.231C164.699 146.201 174.745 148.202 179.063 136.27C179.246 135.775 179.598 135.36 180.056 135.1C180.515 134.84 181.051 134.751 181.57 134.848C192.67 136.975 207.54 143.315 215.712 131.288C218.882 126.634 222.61 131.183 225.432 134.026C228.992 137.607 234.405 135.838 239.491 133.847C239.885 133.7 240.267 133.728 240.639 133.932L244.452 136.059C244.775 136.235 245.115 136.326 245.473 136.333L253.677 136.512C254.161 136.519 254.555 136.712 254.857 137.091C257.173 139.934 260.178 141.075 263.871 140.514C264.038 140.488 264.207 140.514 264.356 140.588C264.505 140.662 264.627 140.779 264.703 140.924C267.757 146.58 270.643 152.898 278.689 150.055C278.833 150.005 278.99 150.004 279.134 150.054C279.278 150.104 279.399 150.201 279.479 150.329C281.508 153.601 284.484 154.612 288.409 153.362C288.511 153.329 288.618 153.317 288.724 153.325C288.831 153.334 288.934 153.364 289.029 153.413C289.124 153.462 289.208 153.529 289.277 153.611C289.346 153.692 289.398 153.787 289.431 153.888C294.345 170.142 298.452 186.268 301.752 202.269C302.482 205.814 302.981 210.041 303.248 214.949C303.245 214.97 303.25 214.99 303.263 215.005C303.276 215.02 303.295 215.028 303.316 215.028C303.337 215.028 303.358 215.02 303.375 215.005C303.392 214.99 303.403 214.97 303.406 214.949C303.939 208.96 307.274 206.264 313.41 206.861ZM275.529 185.124C274.466 178.468 254.72 170.654 248.906 170.075C244.568 169.647 242.184 171.49 241.756 175.604C241.229 180.659 244.367 182.291 248.959 182.902C257.145 184.004 265.525 185.222 274.097 186.556C274.292 186.587 274.492 186.571 274.679 186.51C274.867 186.449 275.038 186.344 275.177 186.204C275.317 186.065 275.422 185.894 275.483 185.706C275.544 185.519 275.56 185.319 275.529 185.124ZM240.208 219.403C244.841 238.191 267.863 237.643 275.856 221.973C276.719 220.281 277.952 218.785 279.552 217.487C279.697 217.372 279.799 217.212 279.843 217.033C279.887 216.854 279.87 216.665 279.795 216.497C278.973 214.601 279.408 213.372 281.1 212.811C281.423 212.698 281.694 212.516 281.911 212.263C282.585 211.477 282.705 210.701 282.269 209.936C282.16 209.744 281.988 209.597 281.783 209.52C281.579 209.443 281.356 209.441 281.153 209.514L279.458 210.125C279.309 210.179 279.147 210.178 278.999 210.125C278.851 210.071 278.726 209.967 278.647 209.83C273.697 201.328 266.234 196.838 256.257 196.361C243.325 195.74 236.806 208.072 240.208 219.403ZM317.054 219.445C314.527 215.496 309.967 213.832 305.501 215.338C304.596 215.64 304.61 215.693 305.543 215.496C310.142 214.541 313.933 215.889 316.917 219.54C316.931 219.555 316.95 219.564 316.97 219.566C316.99 219.568 317.01 219.563 317.026 219.551C317.043 219.54 317.055 219.523 317.06 219.504C317.065 219.484 317.063 219.464 317.054 219.445ZM285.673 241.915C285.561 240.818 285.037 239.774 284.13 238.843C283.222 237.912 281.949 237.111 280.384 236.486C278.819 235.862 276.991 235.426 275.006 235.204C273.021 234.981 270.918 234.977 268.815 235.19C264.569 235.622 260.587 236.915 257.743 238.786C254.9 240.657 253.429 242.952 253.654 245.167C253.765 246.264 254.29 247.307 255.197 248.239C256.105 249.17 257.378 249.971 258.943 250.595C260.508 251.22 262.336 251.656 264.321 251.878C266.306 252.1 268.409 252.105 270.512 251.891C274.758 251.46 278.74 250.167 281.584 248.296C284.427 246.425 285.898 244.129 285.673 241.915Z" fill="#EEA57F"/>
<path d="M220.556 233.631C215.891 241.034 209.814 240.55 204.643 234.442C204.557 234.336 204.439 234.261 204.307 234.227C204.175 234.193 204.036 234.202 203.909 234.253C203.783 234.303 203.675 234.392 203.603 234.508C203.53 234.623 203.496 234.759 203.506 234.895C203.787 239.809 206.655 242.705 212.11 243.583L212.236 261.686C203.411 261.735 194.284 261.1 184.855 259.78C184.378 259.59 183.914 259.548 183.465 259.654C182.573 259.878 182.272 260.429 182.559 261.307C183.928 265.491 186.916 268.156 191.521 269.3C198.914 271.14 205.998 272.021 212.774 271.944C211.777 280.193 211.629 288.513 212.331 296.903L194.302 295.913C194.151 295.903 194.001 295.949 193.881 296.041C193.762 296.134 193.68 296.267 193.651 296.416C193.623 296.565 193.65 296.719 193.727 296.849C193.804 296.979 193.926 297.077 194.07 297.124L212.437 303.211C211.636 308.87 211.696 314.413 212.616 319.84C197.921 319.819 187.72 313.065 182.012 299.578L191.427 296.724C192.248 296.471 192.385 296.039 191.837 295.428C191.767 295.351 191.476 295.253 190.963 295.133C162.655 288.457 139.634 272.196 126.828 245.847C126.667 245.524 126.407 245.38 126.049 245.415C124.23 245.619 122.408 245.847 120.583 246.1C103.101 248.491 92.0433 232.146 97.2562 216.433C99.538 209.574 104.41 206.299 111.874 206.608C115.826 207.977 118.361 210.989 119.477 215.644C119.667 216.43 119.751 216.419 119.73 215.612C119.639 212.417 119.783 209.269 120.162 206.165C122.458 187.392 125.108 171.521 128.113 158.554C128.471 156.995 129.619 156.174 131.557 156.089C131.894 156.075 132.164 155.935 132.367 155.668C133.28 154.475 134.165 153.235 135.021 151.951C135.306 151.523 135.728 151.206 136.216 151.051C136.704 150.895 137.23 150.912 137.707 151.098C141.751 152.635 147.89 154.025 150.608 149.318C153.374 149.732 156.136 149.943 158.896 149.95C170.986 149.96 174.798 147.064 183.423 139.461C183.697 139.215 184.009 139.141 184.36 139.239C192.785 141.472 201.853 144.178 210.299 140.903C211.471 140.447 212.057 140.847 212.057 142.104C212.015 170.117 211.896 197.526 211.699 224.332C211.678 227.481 218.481 230.587 220.556 233.631ZM174.292 182.323C182.138 181.101 180.011 168.411 173.06 169.78C164.804 171.402 150.987 176.594 145.858 183.997C145.716 184.205 145.621 184.441 145.58 184.689C145.54 184.937 145.555 185.191 145.625 185.432C145.694 185.673 145.817 185.895 145.983 186.082C146.149 186.269 146.354 186.417 146.585 186.514C147.259 186.802 148.213 186.83 149.449 186.598C157.72 185.047 166.001 183.622 174.292 182.323ZM147.164 218.94C153.009 238.465 178.979 239.813 183.307 218.15C186.224 190.242 155.125 191.58 144.099 209.556C143.615 210.357 142.888 210.694 142.067 210.262C141.919 210.184 141.75 210.155 141.584 210.179C141.419 210.203 141.265 210.28 141.145 210.397C141.026 210.514 140.947 210.666 140.919 210.831C140.892 210.996 140.917 211.166 140.993 211.315C141.484 212.312 142.263 212.944 143.33 213.211C143.682 213.295 143.832 213.516 143.783 213.874L143.215 217.981C143.203 218.068 143.209 218.157 143.232 218.242C143.255 218.326 143.295 218.405 143.349 218.473C143.403 218.541 143.471 218.597 143.547 218.637C143.624 218.678 143.708 218.702 143.794 218.708L147.164 218.94ZM115.644 214.738C110.326 213.59 105.86 215.917 103.47 220.846C103.458 220.89 103.462 220.935 103.483 220.974C103.503 221.013 103.538 221.044 103.582 221.06C103.625 221.076 103.675 221.077 103.722 221.063C103.768 221.049 103.81 221.021 103.838 220.983C106.078 216.398 109.771 214.45 114.917 215.138C115.037 215.159 115.145 215.138 115.244 215.075L115.665 214.833C115.735 214.791 115.728 214.759 115.644 214.738ZM165.297 244.954C165.421 242.658 163.898 240.368 161.064 238.587C158.229 236.805 154.314 235.679 150.181 235.455C148.135 235.344 146.096 235.458 144.182 235.791C142.267 236.123 140.515 236.668 139.024 237.393C137.533 238.118 136.334 239.01 135.494 240.018C134.654 241.025 134.189 242.129 134.128 243.266C134.004 245.561 135.526 247.851 138.361 249.632C141.196 251.414 145.11 252.54 149.244 252.764C151.29 252.875 153.329 252.761 155.243 252.428C157.158 252.096 158.91 251.551 160.401 250.826C161.892 250.101 163.091 249.209 163.931 248.201C164.771 247.194 165.235 246.09 165.297 244.954Z" fill="#F9B694"/>
<path d="M173.06 169.78C180.011 168.411 182.138 181.101 174.292 182.323C166.001 183.622 157.72 185.047 149.449 186.598C148.213 186.83 147.259 186.802 146.585 186.514C146.354 186.417 146.149 186.269 145.983 186.082C145.817 185.895 145.694 185.673 145.625 185.432C145.555 185.191 145.54 184.937 145.58 184.689C145.621 184.441 145.716 184.205 145.858 183.997C150.987 176.594 164.804 171.402 173.06 169.78Z" fill="#160807"/>
<path d="M248.906 170.075C254.72 170.654 274.466 178.468 275.529 185.124C275.56 185.319 275.544 185.519 275.483 185.707C275.422 185.894 275.317 186.065 275.177 186.205C275.038 186.344 274.867 186.449 274.68 186.51C274.492 186.571 274.292 186.587 274.097 186.556C265.525 185.223 257.145 184.004 248.959 182.902C244.367 182.291 241.229 180.659 241.756 175.604C242.184 171.49 244.568 169.647 248.906 170.075Z" fill="#160807"/>
<path d="M275.856 221.973C277.625 213.527 273.318 206.576 265.672 203.017L262.702 201.026C262.488 200.881 262.23 200.812 261.972 200.832C261.714 200.851 261.469 200.957 261.279 201.133C261.089 201.309 260.963 201.544 260.923 201.8C260.884 202.056 260.931 202.318 261.059 202.543C264.008 207.84 266.778 212.19 263.145 217.982C260.385 222.384 255.141 223.405 250.654 221.057C247.558 219.435 246.6 216.265 246.484 212.99C246.47 212.597 246.323 212.541 246.042 212.821L245.61 213.243C245.399 213.46 245.305 213.717 245.326 214.011L246.052 223.69C243.009 219.424 243.83 214.275 244.409 209.588C244.427 209.435 244.386 209.28 244.295 209.155C244.205 209.029 244.07 208.942 243.919 208.911C243.767 208.879 243.61 208.905 243.476 208.984C243.343 209.062 243.244 209.188 243.198 209.336L240.207 219.403C236.806 208.072 243.325 195.74 256.257 196.361C266.234 196.838 273.697 201.328 278.647 209.831C278.726 209.967 278.85 210.071 278.999 210.125C279.147 210.179 279.309 210.179 279.457 210.125L281.153 209.515C281.356 209.441 281.579 209.443 281.783 209.52C281.988 209.597 282.16 209.744 282.269 209.936C282.705 210.701 282.585 211.477 281.911 212.263C281.694 212.516 281.423 212.699 281.1 212.811C279.408 213.373 278.973 214.601 279.794 216.497C279.87 216.665 279.887 216.854 279.843 217.033C279.799 217.212 279.697 217.372 279.552 217.487C277.951 218.786 276.719 220.281 275.856 221.973ZM252.895 202.814C252.639 202.461 252.304 202.171 251.91 201.96C251.516 201.749 251.07 201.621 250.598 201.583C250.125 201.545 249.636 201.599 249.158 201.74C248.679 201.882 248.221 202.109 247.809 202.408C246.978 203.012 246.386 203.874 246.164 204.804C245.941 205.735 246.107 206.658 246.624 207.369C246.88 207.722 247.215 208.012 247.609 208.223C248.003 208.434 248.449 208.562 248.921 208.6C249.393 208.638 249.883 208.584 250.361 208.443C250.839 208.301 251.297 208.074 251.709 207.775C252.541 207.171 253.133 206.309 253.355 205.378C253.577 204.448 253.412 203.525 252.895 202.814Z" fill="#010100"/>
<path d="M183.307 218.15L180.106 209.894C180.059 209.769 179.969 209.666 179.851 209.604C179.734 209.542 179.598 209.526 179.468 209.558C179.338 209.59 179.223 209.669 179.145 209.779C179.067 209.889 179.03 210.023 179.042 210.157C179.769 217.013 180.274 223.395 173.081 226.912C177.392 223.163 178.937 218.61 177.715 213.253C177.582 212.677 177.413 212.667 177.21 213.222C170.596 231.019 152.451 217.982 161.697 203.764C161.763 203.665 161.801 203.55 161.806 203.431C161.811 203.312 161.784 203.193 161.727 203.088C161.669 202.982 161.585 202.894 161.481 202.831C161.378 202.769 161.26 202.734 161.139 202.732C160.395 202.725 160.002 202.325 159.959 201.532C159.945 201.216 159.78 201.072 159.464 201.1C158.938 201.149 158.559 201.307 158.327 201.574C150.674 205.028 146.953 210.817 147.164 218.94L143.794 218.708C143.708 218.702 143.624 218.678 143.547 218.638C143.471 218.597 143.403 218.541 143.349 218.473C143.295 218.405 143.255 218.326 143.232 218.242C143.209 218.157 143.203 218.069 143.215 217.982L143.783 213.874C143.833 213.516 143.682 213.295 143.331 213.211C142.263 212.944 141.484 212.312 140.993 211.315C140.918 211.166 140.892 210.996 140.919 210.831C140.947 210.666 141.026 210.514 141.146 210.397C141.265 210.28 141.419 210.204 141.584 210.179C141.75 210.155 141.919 210.184 142.067 210.262C142.888 210.694 143.615 210.357 144.099 209.557C155.126 191.58 186.224 190.242 183.307 218.15ZM176.755 207.814C177.285 207.095 177.463 206.161 177.25 205.219C177.037 204.277 176.45 203.403 175.618 202.79C174.786 202.176 173.778 201.874 172.815 201.949C171.852 202.024 171.013 202.47 170.482 203.19C169.952 203.909 169.774 204.843 169.987 205.785C170.2 206.727 170.787 207.601 171.619 208.215C172.451 208.828 173.459 209.13 174.422 209.055C175.385 208.98 176.224 208.534 176.755 207.814Z" fill="#010100"/>
<path d="M173.081 226.912C165.552 231.757 156.505 226.533 154.42 218.255C152.798 211.852 154.143 206.467 158.453 202.101C158.545 202.002 158.559 201.897 158.496 201.785C158.432 201.679 158.376 201.609 158.327 201.574C158.559 201.307 158.938 201.149 159.464 201.1C159.78 201.072 159.945 201.216 159.959 201.532C160.002 202.325 160.395 202.725 161.139 202.732C161.26 202.734 161.378 202.769 161.481 202.831C161.585 202.894 161.669 202.982 161.727 203.088C161.784 203.193 161.811 203.312 161.806 203.431C161.801 203.55 161.763 203.665 161.697 203.764C152.451 217.982 170.596 231.019 177.21 213.222C177.413 212.667 177.582 212.677 177.715 213.253C178.937 218.61 177.392 223.163 173.081 226.912Z" fill="#6D3521"/>
<path d="M265.672 203.017C270.074 208.247 271.117 213.741 268.8 219.498C265.019 228.913 252.392 232.767 246.052 223.689L245.326 214.011C245.305 213.716 245.399 213.46 245.61 213.242L246.042 212.821C246.323 212.54 246.47 212.597 246.484 212.99C246.6 216.265 247.558 219.435 250.655 221.057C255.141 223.405 260.385 222.384 263.145 217.982C266.778 212.189 264.008 207.84 261.059 202.543C260.932 202.317 260.884 202.055 260.924 201.799C260.963 201.543 261.089 201.308 261.279 201.133C261.47 200.957 261.714 200.851 261.972 200.831C262.231 200.812 262.488 200.881 262.702 201.026L265.672 203.017Z" fill="#6D3521"/>
<path d="M158.327 201.574C158.376 201.609 158.432 201.679 158.496 201.784C158.559 201.897 158.545 202.002 158.453 202.1C154.143 206.467 152.798 211.852 154.42 218.255C156.505 226.533 165.551 231.756 173.081 226.912C180.274 223.395 179.769 217.013 179.042 210.157C179.03 210.023 179.066 209.889 179.145 209.779C179.223 209.669 179.338 209.59 179.468 209.558C179.598 209.526 179.734 209.542 179.851 209.604C179.968 209.665 180.059 209.768 180.106 209.893L183.307 218.15C178.979 239.813 153.009 238.465 147.164 218.94C146.953 210.817 150.674 205.028 158.327 201.574Z" fill="#FEFDFE"/>
<path d="M251.709 207.775C253.441 206.517 253.972 204.295 252.895 202.813C251.818 201.331 249.541 201.149 247.81 202.407C246.078 203.665 245.547 205.887 246.624 207.369C247.701 208.851 249.978 209.033 251.709 207.775Z" fill="#FEFDFE"/>
<path d="M171.619 208.214C173.351 209.492 175.65 209.312 176.755 207.814C177.859 206.316 177.35 204.067 175.618 202.79C173.886 201.512 171.587 201.692 170.482 203.19C169.378 204.688 169.886 206.937 171.619 208.214Z" fill="#FEFDFE"/>
<path d="M265.672 203.017C273.318 206.576 277.625 213.527 275.856 221.973C267.862 237.643 244.841 238.191 240.207 219.403L243.198 209.335C243.244 209.188 243.343 209.062 243.476 208.984C243.61 208.905 243.767 208.879 243.919 208.911C244.07 208.942 244.204 209.029 244.295 209.155C244.386 209.28 244.427 209.434 244.409 209.588C243.83 214.275 243.009 219.424 246.052 223.69C252.392 232.767 265.019 228.913 268.8 219.498C271.117 213.741 270.074 208.247 265.672 203.017Z" fill="#FEFDFE"/>
<path d="M103.47 220.846C105.86 215.917 110.326 213.59 115.644 214.738C115.728 214.759 115.735 214.79 115.665 214.833L115.244 215.075C115.145 215.138 115.036 215.159 114.917 215.138C109.771 214.45 106.078 216.398 103.838 220.983C103.81 221.021 103.768 221.049 103.722 221.063C103.675 221.077 103.625 221.076 103.582 221.06C103.538 221.044 103.503 221.013 103.483 220.974C103.462 220.935 103.458 220.89 103.47 220.846Z" fill="#DB926F"/>
<path d="M305.501 215.338C309.967 213.832 314.527 215.496 317.054 219.446C317.063 219.464 317.065 219.484 317.06 219.504C317.055 219.523 317.043 219.54 317.026 219.552C317.01 219.563 316.99 219.568 316.97 219.566C316.95 219.564 316.931 219.555 316.917 219.54C313.933 215.89 310.142 214.542 305.543 215.496C304.61 215.693 304.596 215.64 305.501 215.338Z" fill="#DB926F"/>
<path d="M212.11 243.583C206.655 242.705 203.787 239.809 203.506 234.895C203.496 234.759 203.53 234.623 203.603 234.508C203.675 234.392 203.782 234.303 203.909 234.253C204.036 234.202 204.175 234.193 204.307 234.227C204.439 234.261 204.557 234.337 204.643 234.442C209.814 240.55 215.891 241.034 220.556 233.631C222.599 233.61 222.61 235.811 222.009 237.201C220.142 241.519 216.842 243.646 212.11 243.583Z" fill="#DB926F"/>
<path d="M270.512 251.891C279.353 250.993 286.141 246.527 285.673 241.915C285.204 237.303 277.657 234.292 268.815 235.191C259.973 236.089 253.186 240.555 253.654 245.167C254.122 249.779 261.67 252.79 270.512 251.891Z" fill="#D56860"/>
<path d="M149.244 252.764C157.851 253.23 165.038 249.733 165.297 244.954C165.556 240.174 158.788 235.921 150.181 235.455C141.574 234.989 134.387 238.486 134.128 243.266C133.869 248.045 140.637 252.298 149.244 252.764Z" fill="#F38270"/>
<path d="M238.175 258.916C233.267 268.479 209.551 267.51 200.747 266.13C193.628 265.025 189.141 264.498 184.855 259.78C194.284 261.1 203.411 261.735 212.236 261.686C220.619 261.651 228.798 260.605 236.774 258.548C237.245 258.428 237.711 258.551 238.175 258.916Z" fill="#FEFDFE"/>
<path d="M212.774 271.944C205.999 272.021 198.915 271.14 191.522 269.3C186.916 268.156 183.929 265.492 182.56 261.307C182.272 260.43 182.574 259.878 183.465 259.654C183.915 259.548 184.378 259.591 184.855 259.78C189.142 264.498 193.628 265.025 200.747 266.13C209.551 267.51 233.268 268.479 238.175 258.917C238.189 258.818 238.249 258.734 238.354 258.664C238.438 258.607 238.539 258.581 238.64 258.588C238.742 258.596 238.837 258.637 238.912 258.706C239.902 259.64 240.074 260.833 239.428 262.287C235.469 271.143 221.462 271.702 212.774 271.944Z" fill="#A84342"/>
<path d="M229.466 294.965L243.641 299.283C243.704 299.704 243.595 300.048 243.314 300.315L236.848 298.493C236.689 298.449 236.52 298.448 236.359 298.49C236.198 298.533 236.051 298.617 235.932 298.735C235.82 298.841 235.749 298.971 235.721 299.125C235.688 299.31 235.611 299.484 235.495 299.631C235.379 299.778 235.229 299.893 235.058 299.967C227.412 303.443 219.872 304.524 212.437 303.211L194.07 297.124C193.926 297.077 193.804 296.98 193.727 296.849C193.65 296.719 193.623 296.565 193.652 296.416C193.68 296.268 193.762 296.134 193.882 296.042C194.001 295.949 194.151 295.903 194.302 295.913L212.331 296.903L229.466 294.965Z" fill="#DB926F"/>
<path d="M243.314 300.315C243.448 300.729 243.441 301.091 243.293 301.4C237.283 313.77 227.057 319.917 212.616 319.84C211.696 314.413 211.636 308.87 212.437 303.211C219.872 304.524 227.412 303.443 235.058 299.967C235.229 299.893 235.379 299.778 235.495 299.631C235.61 299.484 235.688 299.31 235.721 299.125C235.749 298.97 235.819 298.841 235.932 298.735C236.05 298.617 236.198 298.533 236.359 298.49C236.52 298.448 236.688 298.449 236.848 298.493L243.314 300.315Z" fill="#EEA57F"/>
<path d="M243.641 299.283C260.266 302.231 276.024 307.676 290.915 315.617C281.574 322.062 274.56 327.159 262.597 331.677C219.861 347.811 174.471 341.766 137.507 314.932C151.352 307.013 166.187 301.894 182.012 299.578C187.72 313.065 197.921 319.819 212.615 319.84C227.057 319.917 237.283 313.77 243.293 301.4C243.44 301.091 243.447 300.729 243.314 300.315C243.595 300.048 243.704 299.704 243.641 299.283Z" fill="#4D7999"/>
<path d="M137.507 314.932C174.471 341.766 219.861 347.811 262.597 331.677C274.56 327.159 281.574 322.062 290.916 315.617L298.445 319.429C298.726 319.57 298.765 319.763 298.561 320.008C254.972 372.528 173.26 367.641 128.439 320.387C128.36 320.303 128.302 320.201 128.27 320.089C128.238 319.978 128.232 319.861 128.253 319.747C128.275 319.633 128.323 319.526 128.394 319.434C128.465 319.342 128.556 319.268 128.661 319.219L137.507 314.932Z" fill="#D1DEDE"/>
</svg>
